<svg role="img" height="74.528" width="86.041" xmlns="http://www.w3.org/2000/svg"><title>Commerzbank icon</title><path d="M54.525 0c-1.56 0-6.197 0-11.587 6.544l.21.25c1.385-1.618 3.12-3.274 4.985-4.48 1.723-1.109 3.72-1.85 5.373-2.031C54.712.149 58.7.2 63.237.2c.024 0 .038.01.048.024l-.117-.197C63.16.008 63.144 0 63.125 0z" fill="#fff"/><path d="M22.916 0c-.016 0-.035.005-.045.024L5.99 29.262.696 38.431l-.614 1.064-.08.136c-.005.01-.005.03.005.05l16.08 27.852v-.115c-.349-.64-.6-1.133-.733-1.442-.672-1.523-1.053-3.63-.954-5.678.272-5.392 3.139-10.712 4.581-13.208L28.9 29.908l9.92-17.185c1.44-2.493 4.616-7.637 9.153-10.568 1.72-1.112 3.741-1.832 5.39-2.014C54.57.005 58.58 0 63.124 0zM.142 39.903c.253.442.504.88.752 1.306zm80.888 8.16c-.984 1.339-2.616 2.728-4.44 3.661-4.808 2.462-10.846 2.64-13.726 2.64H23.181c-2.881 0-8.927-.178-13.727-2.64-1.826-.933-3.459-2.322-4.443-3.661-.624-.85-2.224-3.576-4.117-6.854l4.035 6.993 15.184 26.302a.054.054 0 0 0 .043.024h45.732c.014 0 .032-.013.04-.027l19.926-34.51c-2.197 3.805-4.123 7.12-4.824 8.072M53.362.141c-1.648.182-3.669.902-5.39 2.014-1.898 1.226-3.557 2.84-4.951 4.485 1.938 2.286 3.363 4.63 4.2 6.083 3.381 5.859 9.923 17.185 9.923 17.185s6.536 11.325 9.92 17.182c1.438 2.496 4.307 7.816 4.574 13.208.101 2.048-.286 4.155-.95 5.678-.466 1.064-2.32 4.298-4.472 8.027l19.822-34.33c0-.002.003-.005.003-.01v-.022a.024.024 0 0 0-.005-.013L63.168.027C63.16.008 63.144 0 63.125 0c-4.544 0-8.555.005-9.763.141"/></svg>