<svg role="img" viewBox="0 -0.693 322.1 254.789" height="254.789" width="322.1" xmlns="http://www.w3.org/2000/svg"><title>Deutsche Post icon</title><path d="M105.633 210.397h42.776l-43.198 43.699H62.45zm-57.688 0H90.72l-43.198 43.699H4.75zm153.155 0h-42.76l43.182 43.699h42.776zm57.703 0H216.03l43.18 43.699h42.777zm-26.23-121.294c7.41-20.208 12.569-50.966 13.645-72.488L322.1 35.482c-6.076 89.067-72.888 167.08-171.981 167.048C38.012 202.48-5.316 105.026.515 31.168l32.924-10.469c-5.355 42.025 7.652 72.325 16.623 86.234C39.38 47.471 84.275-.661 140.449-.693c50.52-.032 92.318 36.86 92.125 89.796zm-152.7 1.874c0 33.542 27.193 60.735 60.735 60.735 33.53 0 60.718-27.193 60.718-60.735 0-33.529-27.19-60.719-60.718-60.719-33.542 0-60.735 27.19-60.735 60.719z"/></svg>