<svg role="img" viewBox="0 0 10.337 10.389" height="39.265" width="39.069" xmlns="http://www.w3.org/2000/svg"><title>Fraunhofer-Gesellschaft icon</title><path d="M0 10.385c2.459-1.267 6.06-3.313 10.337-6.306V3.075C6.574 5.537 2.747 7.514 0 8.822zm0-3C2.738 6.27 6.565 4.546 10.337 2.303v-.496C6.792 3.566 3.108 4.667 0 5.353zm10.337 3.004V5.338a87.178 87.178 0 0 1-6.642 5.051zm-7.964 0a72.258 72.258 0 0 0 6.363-4.227c.524-.393 1.06-.798 1.601-1.216V4.32C7.011 6.814 3.616 8.892.964 10.389zM0 4.618c3.023-.532 6.722-1.488 10.337-3.206V.849C6.695 2.484 3.048 3.177 0 3.424zM0 0v2.894c.226-.014.456-.03.691-.048 2.514-.194 5.944-.638 9.646-2.239V0z"/></svg>