<svg role="img" height="328" width="331" xmlns="http://www.w3.org/2000/svg"><title>Sachsenring icon</title><path d="M69.057 237.345l-6.787-6.84 4.872-2.167c2.68-1.191 13.648-5.533 24.373-9.648 29.862-11.457 34.39-13.279 49.99-20.112 17.308-7.581 20.54-9.61 23.079-14.486 2.545-4.89 2.439-8.74-.356-12.892-4.196-6.232-5.118-6.388-36.213-6.11-36.87.329-41.8-.865-46.61-11.288-2.337-5.065-2.336-8.942.006-14 4.398-9.498 8.466-11.384 89.604-41.548 16.5-6.134 34.95-13.092 41-15.464 14.993-5.876 37.67-14.241 40.6-14.977 1.964-.493 3.037.178 5.905 3.694 6.798 8.33 6.535 7.632 3.354 8.911-6.592 2.65-18.595 7.312-29.359 11.404-49.258 18.728-62.811 25.348-66.5 32.482-2 3.866-1.9 10.457.205 13.67 3.524 5.378 6.14 5.784 38.295 5.942 17.892.088 31.088.578 33.535 1.246 8.427 2.3 14.15 12.576 11.65 20.918-.651 2.173-2.055 5.06-3.12 6.414-2.526 3.21-11.448 7.915-24.266 12.793-5.664 2.156-19.524 7.57-30.799 12.03a6117.674 6117.674 0 0 1-39.5 15.44c-42.501 16.4-63.337 24.79-69.585 28.022l-6.585 3.406-6.788-6.84z"/><path d="M290.187 154.44a125.974 125.974 0 1 1-251.949 0 125.974 125.974 0 1 1 251.949 0z" fill="none" stroke="#000" stroke-width="15"/></svg>