<svg role="img" height="496.063" width="389.764" xmlns="http://www.w3.org/2000/svg"><path d="M194.882 17.69a58.515 58.515 0 0 0-23.235 4.807c-7.21 3.044-13.01 6.73-18.427 12.017-5.32 5.32-9.71 12.114-12.819 19.229-3.045 7.179-4.807 14.293-4.807 22.433s1.764 16.056 4.807 23.235c3.109 7.082 7.5 13.14 12.819 18.427 5.416 5.352 11.217 9.71 18.427 12.82 7.179 3.044 15.095 4.806 23.235 4.806 8.204 0 16.056-1.764 23.234-4.807 7.115-3.108 13.14-7.467 18.428-12.819 5.32-5.288 9.71-11.345 12.819-18.427 3.044-7.179 4.807-15.095 4.807-23.235 0-8.14-1.764-15.254-4.807-22.433-3.109-7.115-7.5-13.909-12.82-19.229-5.287-5.287-11.312-8.973-18.427-12.017a58.306 58.306 0 0 0-23.234-4.808zM76.306 171.517c-8.14 0-15.255.897-22.433 4.006-7.18 3.076-13.877 7.499-19.229 12.819-5.32 5.32-8.973 12.05-12.018 19.228-3.108 7.115-4.807 14.294-4.807 22.434v129.792h271.603v36.054H17.82v23.234c0 8.173 1.73 16.056 4.807 23.235 3.045 7.179 6.73 13.075 12.018 18.427 5.352 5.288 12.05 9.743 19.229 12.82 7.178 3.108 14.293 4.806 22.433 4.806h237.152c8.14 0 15.255-1.697 22.433-4.807 7.21-3.076 13.94-7.53 19.229-12.819 5.352-5.352 9.71-11.248 12.819-18.427 3.108-7.179 4.006-15.062 4.006-23.235V289.293H100.342V254.04h271.603v-24.035c0-8.14-.864-15.319-4.006-22.434-3.077-7.178-7.467-13.908-12.82-19.228-5.287-5.32-12.017-9.743-19.228-12.82-7.178-3.108-14.293-4.005-22.433-4.005H76.306z"/></svg>